<svg version="1" xmlns="http://www.w3.org/2000/svg" width="933.333" height="933.333" viewBox="0 0 700.000000 700.000000"><path d="M177.5 6c-3.7 1.4-4.6 3.7-5.6 13.6-.5 5.6-1.5 10.7-2.4 12-2.6 4-11.3 10.2-21.2 15.1-10.6 5.3-16.7 6.1-27.8 3.9-4.8-1-7.1-1-11.6 0-8.7 2-17 2.4-20.5.9C83.7 49.6 75 35 75 29.1c0-4.2-2.2-5.6-5-3.3-1.8 1.5-2.3 2.9-2.3 6.3.1 5.3 4.9 16.9 9.2 22.1 3.4 4 15.8 10.8 19.8 10.8 3.3 0 6.3 1.7 6.3 3.6 0 5.3-9.5 11.3-21.1 13.3-11.9 2-14.7 1.6-22.9-3.4-7.9-4.9-18-12.7-21.9-16.9-1.4-1.4-3.4-2.6-4.7-2.6-2 0-2.1.3-1.4 3.4 1.2 5.4 4.4 9.8 12.3 16.9 9.6 8.7 11.6 10.2 17.3 13.1 4.2 2.1 6 2.4 12.1 2.1 3.9-.1 7.7-.6 8.3-1 1.8-1.1 18.4-.8 24.5.5 3.2.7 6.4 2.1 7.6 3.3 1.9 2 2 3 1.5 10.2-.3 4.4-.7 8.9-1 10-.2 1.1-.7 4.2-1 7-.4 2.7-.8 6.1-1.1 7.5-.2 1.4-.6 5-.9 8-.3 3-1 10.4-1.6 16.5-1.3 13-1.5 25.3-.5 32.6 1.6 11.6 7.3 19.3 15 20.5 7.1 1 12-.9 31.6-12.4 2.1-1.2 3.9-2 3.9-1.7 0 .4-1.6 6.4-3.6 13.3-2 7-3.7 13.4-3.9 14.2-.3.8-1.6 5.5-3 10.5-6.4 21.8-10.5 40-12.1 53-.3 2.7-.8 6.1-1 7.5-.5 3.5-.5 29.2.1 36.4.4 5.1 1.8 14 4.1 26.1 5.8 31.5 27.6 79.1 52.1 114.4 3.7 5.3 6.7 9.8 6.6 10-.5 1.1-13.4 1.5-31.3.8-12-.5-26.5 2.8-36.4 8.1-6.5 3.6-9 7.5-11.3 18.2-1.4 6.6-.9 29.1 1 43 .3 1.9.8 6 1.2 9 .4 3 1.3 8.9 2.1 13s1.7 11.8 2.1 17c.5 8.4.3 10-1.5 13.5-1.1 2.2-3.7 5.3-5.8 7-12.4 10-22 22.1-25.8 32.5-1.8 4.9-3.5 16.1-3.1 20 .1 1.4.3 3.7.4 5.1 0 1.4.7 3.4 1.5 4.4 1.2 1.7 1.7 1.8 3.9.6 2.5-1.3 6.4-8.3 8.7-15.6 2.6-8.1 5.5-12.2 15.6-22.2 11.7-11.4 13.3-11.9 15.2-4.9.6 2.4 4 10.4 7.6 17.7 7 14.6 12.6 30 12.6 34.5 0 5.6 2 10.4 4.6 11.4 3.4 1.3 3.2 1.5 4.3-2.7 1.7-6.1 1.3-19-.9-27.8-1.1-4.4-2.3-9.3-2.6-10.9-.3-1.6-.7-3.2-.9-3.5-.2-.4-.6-4.7-1-9.6-.7-9.5.3-14.5 2.9-14.5 2.1 0 14.1 6.5 20.2 11.1 8.2 6 10.7 10.5 12.9 22.7 1.1 6.3 3.7 11.2 6.7 12.8 1.9 1 3.4 1.2 4 .6 1.8-1.8 1.1-16.4-1.1-24.5-3.9-14.4-6.1-17.1-23.1-28.5-16.5-11.2-19.5-17.2-18.3-37.8 1-17.5.8-22.7-1.7-40.8-.6-4.3-1.6-8.9-2.1-10.3-1.4-3.9-1.2-4.1 3.9-3.1 2.6.5 7 1.1 9.7 1.4 2.8.2 7.3.7 10 1 2.8.3 16.7.7 31 .8l26.1.3 4.4 2.8c5.6 3.5 14.3 12.4 22.4 22.9 9.4 12.2 12.4 18.2 14.1 28.6 2.7 16.5 3.3 18.3 8.9 25.5 1.7 2.2 3.3 4.2 3.6 4.5.3.3 3.9 4.5 7.9 9.5 17.7 21.3 29.1 30.9 46.7 39.1 13.1 6.1 18 7.7 24.4 7.7 4.7.1 6.5-.5 11.5-3.6 12.8-7.8 18.8-15.6 18.7-24.1 0-7.1-.5-9.3-5.9-27.1-5.9-19.7-14-35.7-26.8-53-9.9-13.4-13.8-16.3-28.1-21-12.2-4-16.1-6.6-25.3-17-8.9-9.9-13.1-22.2-9.5-27.3.8-1.2 5.6-5.6 10.6-9.8 5-4.3 11.2-9.8 13.6-12.3 5.4-5.6 46.2-52.4 51-58.6 1.9-2.4 2.5-2.7 3.2-1.5 4.1 7.4 16.7 14.3 44 24 19 6.8 23 8.8 23.1 11.9 0 1.4.2 9.1.5 17.1.8 31.5.8 31.1 6 41.3 2.6 5.1 5.8 12.1 7 15.7 2.6 7.3 4.8 8.6 8.3 4.9 2.9-3.2 2.4-10.7-1.8-24.2-2.6-8.7-3.5-19.6-2.1-28.2 1.3-8.7 3.6-12.1 8-11.8 5.6.2 37.5 14.9 49.8 22.9 4.5 3 9 5.4 9.8 5.4 2.2 0 5.4-1.9 5.4-3.1 0-1.9-5.2-6.9-18-17.2-6.9-5.5-15.3-12.8-18.7-16.2-9.2-9-8-10.8 10.7-17.1 9.2-3 16.6-3.5 32.5-2 7.1.7 8.4.5 11.3-1.3 1.7-1.1 3.2-2.4 3.2-2.8 0-1.6-24.4-8.7-30-8.7-5.5 0-7.4.2-16.5 2.4-10.4 2.4-22.7.8-34.4-4.6-9.4-4.3-19.8-11.6-46.3-32.5-12.7-10.1-32.5-23.7-39.5-27.3-4.5-2.2-8.6-2-14.2.9-5.8 2.9-10.9 7.5-34.1 30.6-9.7 9.7-20.6 19.7-24.3 22.3-11.3 8-22.6 11.5-26.9 8.3-1.4-1.2-14.6-26.4-19.1-36.7-7.5-17.2-11.4-36.7-11.2-56 .2-10.1 1.2-23.8 2-27 .2-.8.7-3 1-4.8.3-1.7.7-4.6 1-6.3.7-3.6 4.7-17.6 6.9-23.7 2.4-6.8 10.3-21.4 13.2-24.5 5.8-6.2 10.8-5.4 27.8 4.8 6 3.6 11.1 6.5 11.2 6.5.4 0 8.9 5.7 27.2 18.4 6.3 4.3 14.6 9.3 18.5 11 6.4 2.7 8.3 3 16.7 3 12.9 0 15.6-1.4 42-22.5 11.8-9.5 25.3-19.7 29.9-22.8 7.6-5 8.9-5.6 13.7-5.6 4.7 0 5.7.4 8.9 3.5 2 1.9 5.7 6.4 8.3 10 10.1 14.1 11.3 14.8 30.2 16.5 9 .8 15.7 2.9 21 6.5 4.8 3.3 10.4 6 12.5 6 1.9 0 3.7-4.8 2.5-7-2.3-4.2-11-9-22.5-12.4-22.3-6.4-25.5-7.8-29.3-12.7-2.4-2.9-7.4-15-6.7-15.8.3-.3 4.3.3 8.8 1.2 11.9 2.5 14 2.3 22.4-2.4 25.7-14 34.1-22.5 24.2-24.4-2.7-.5-5.3.8-10.9 5.8-2.5 2.2-7 5.1-10 6.6-4.7 2.2-6.9 2.6-15.1 2.6-9 0-10-.2-16.4-3.5-4-2.1-8.1-5.1-9.9-7.3-2.9-3.7-3.1-4.4-3-12 0-4.5.6-10.5 1.3-13.3 2-8.3 2.8-13.6 3.4-23.1.5-6.1 1.5-9.1 5.8-16l2.3-3.6-3.7.6c-4.5.7-8.8 3.6-12.4 8.3-2.3 3.1-2.7 4.7-3 11.7-.8 17.5-2.8 20.9-20.6 35.1-2.6 2.1-10 9-16.5 15.5-6.4 6.5-13.9 13.2-16.6 15-22.5 14.9-40.6 15.5-56.1 2-19.8-17.3-36.2-35.5-39.4-43.6-1.8-4.4-1.6-11.5.5-15.4 3.6-7.1 16.9-17.3 32.4-24.8 7.8-3.8 28-11.5 28-10.6 0 .2 1.5-.2 3.4-1 3.4-1.4 21-5.9 27.6-6.9 20.3-3.4 50.6-2.5 67 1.9.3.1 2.3.5 4.5 1 2.2.4 4.5 1 5 1.4.6.3 1.2.6 1.5.6 2.3.3 13.3 4.7 21.5 8.6 9.9 4.7 24.3 13.7 32 20.1 7.8 6.4 24.2 23.4 30.3 31.5 19.3 25.5 33.8 59 38.7 89.3.3 1.9 1 5.7 1.5 8.5 3.2 17.8 3.5 65.7.5 89.5-.2 1.9-.7 5.5-1 8-.3 2.5-.7 6-1 7.8-.2 1.8-.6 4.5-.9 6-1 4.8-1.9 10.6-3 17.8-.3 2.2-2.6 13.9-5.1 26-8.4 39.7-9.1 45.7-6 48.8 4.6 4.5 13.7-5.7 20.5-22.9 18-45.4 30.6-92.9 33.5-127 .4-3.9.9-8.1 1.1-9.5.9-4.5 1.1-51.3.3-59.5-.5-4.4-1.1-10.7-1.4-14-2.7-29.4-14.7-64.2-32.6-94.7-31.8-54-78.4-91.1-135.6-107.8-7.5-2.2-22.2-5.4-28.9-6.4-2.2-.4-5.1-.8-6.4-1.1-1.4-.3-5.6-.7-9.5-1-3.8-.4-8.6-.8-10.5-1.1-4.6-.7-42.9-.6-50 .1-12.1 1.1-16.8 1.6-24.5 2.6-11.1 1.5-11 1.5-26.5 4.5-8.1 1.6-24.3 6.1-36 10-29 9.8-52.5 21-87.5 41.9-8.2 4.9-15.9 9.5-17 10.1-1.1.6-7.4 4.1-13.9 7.9-20 11.4-40.2 19.6-44.2 18.1-2.2-.8-1.5-8.1 3.2-36.1 1.7-9.8 2.1-17.8 1.8-29.5-.7-19.8.7-23 15.2-33.5 15.4-11.3 17-14.2 16.1-30.5-.8-14.1-1.1-14.7-5.2-13z"/></svg>